<?xml version="1.0" encoding="UTF-8" standalone="no"?>
<!-- Created with Inkscape (http://www.inkscape.org/) -->

<svg
   xmlns:dc="http://purl.org/dc/elements/1.1/"
   xmlns:cc="http://creativecommons.org/ns#"
   xmlns:rdf="http://www.w3.org/1999/02/22-rdf-syntax-ns#"
   xmlns:svg="http://www.w3.org/2000/svg"
   xmlns="http://www.w3.org/2000/svg"
   xmlns:sodipodi="http://sodipodi.sourceforge.net/DTD/sodipodi-0.dtd"
   xmlns:inkscape="http://www.inkscape.org/namespaces/inkscape"
   width="210mm"
   height="297mm"
   viewBox="0 0 744.09448819 1052.3622047"
   id="svg2"
   version="1.1"
   inkscape:version="0.91 r13725"
   sodipodi:docname="design.svg"
   inkscape:export-filename="Box2d_design"
   inkscape:export-xdpi="90"
   inkscape:export-ydpi="90">
  <defs
     id="defs4" />
  <sodipodi:namedview
     id="base"
     pagecolor="#ffffff"
     bordercolor="#666666"
     borderopacity="1.0"
     inkscape:pageopacity="0.0"
     inkscape:pageshadow="2"
     inkscape:zoom="0.90941596"
     inkscape:cx="198.23212"
     inkscape:cy="698.44951"
     inkscape:document-units="px"
     inkscape:current-layer="layer4"
     showgrid="false"
     inkscape:snap-midpoints="false"
     inkscape:snap-bbox="false"
     inkscape:window-width="1366"
     inkscape:window-height="705"
     inkscape:window-x="-8"
     inkscape:window-y="-8"
     inkscape:window-maximized="1" />
  <metadata
     id="metadata7">
    <rdf:RDF>
      <cc:Work
         rdf:about="">
        <dc:format>image/svg+xml</dc:format>
        <dc:type
           rdf:resource="http://purl.org/dc/dcmitype/StillImage" />
        <dc:title />
      </cc:Work>
    </rdf:RDF>
  </metadata>
  <g
     inkscape:label="Snooker"
     inkscape:groupmode="layer"
     id="layer1"
     style="display:inline">
    <rect
       style="fill:#008000;stroke:#000000;stroke-width:10;stroke-miterlimit:4;stroke-dasharray:none;stroke-opacity:1"
       id="rect3336"
       width="402.85715"
       height="255.71428"
       x="329.71429"
       y="46.362213" />
    <circle
       style="fill:#916f6f;stroke:#000000;stroke-width:0.82882881;stroke-miterlimit:4;stroke-dasharray:none;stroke-opacity:1"
       id="path4162"
       cx="351.28571"
       cy="199.36224"
       r="12.728442" />
    <path
       style="fill:none;fill-rule:evenodd;stroke:#000000;stroke-width:1px;stroke-linecap:butt;stroke-linejoin:miter;stroke-opacity:1"
       d="M 351.71429,200.07649 567.42857,48.64792 733.14286,174.3622 534.57143,301.50506 l -72.07785,-57.61807 -0.77929,3.33236 0,-1.42858"
       id="path4172"
       inkscape:connector-curvature="0"
       sodipodi:nodetypes="ccccccc" />
    <path
       style="display:inline;fill:#552200;stroke:none;stroke-width:2;stroke-miterlimit:4;stroke-dasharray:none;stroke-opacity:1"
       d="m 355.18306,252.46827 -77.21149,55.65039 4.12182,5.11328 75.35203,-54.31054 101.5437,0 0,-6.42969 -103.51474,0 0,0.33789 -0.29132,-0.36133 z"
       id="rect4181"
       inkscape:connector-curvature="0" />
    <path
       style="display:inline;fill:#916f6f;stroke:#000000;stroke-width:0.82882881;stroke-miterlimit:4;stroke-dasharray:none;stroke-opacity:1"
       d="m 429.34655,227.33546 a 12.728442,12.728442 0 0 0 -12.72852,12.72851 12.728442,12.728442 0 0 0 12.72852,12.72852 12.728442,12.728442 0 0 0 12.72851,-12.72852 12.728442,12.728442 0 0 0 -12.72851,-12.72851 z"
       id="path4162-9"
       inkscape:connector-curvature="0" />
  </g>
  <g
     inkscape:groupmode="layer"
     id="layer2"
     inkscape:label="Newtons pendullum"
     style="display:inline">
    <path
       style="display:inline;fill:none;fill-rule:evenodd;stroke:#000000;stroke-width:1px;stroke-linecap:butt;stroke-linejoin:miter;stroke-opacity:1"
       d="m 251.71429,234.21935 0.71428,87.85714"
       id="path4299"
       inkscape:connector-curvature="0" />
    <path
       style="display:inline;fill:none;fill-rule:evenodd;stroke:#000000;stroke-width:1px;stroke-linecap:butt;stroke-linejoin:miter;stroke-opacity:1"
       d="m 233.14286,321.3622 0,-87.14285 -0.71429,0 0,0"
       id="path4301"
       inkscape:connector-curvature="0" />
    <path
       style="display:inline;fill:none;fill-rule:evenodd;stroke:#000000;stroke-width:1px;stroke-linecap:butt;stroke-linejoin:miter;stroke-opacity:1"
       d="m 213.85714,322.79078 0,-88.57143"
       id="path4303"
       inkscape:connector-curvature="0" />
    <path
       style="display:inline;fill:none;fill-rule:evenodd;stroke:#000000;stroke-width:1px;stroke-linecap:butt;stroke-linejoin:miter;stroke-opacity:1"
       d="m 194.57143,322.07649 0,-87.85714"
       id="path4305"
       inkscape:connector-curvature="0" />
    <path
       style="display:inline;fill:none;fill-rule:evenodd;stroke:#000000;stroke-width:1px;stroke-linecap:butt;stroke-linejoin:miter;stroke-opacity:1"
       d="m 175.28571,322.79078 0,-87.85715"
       id="path4307"
       inkscape:connector-curvature="0" />
    <path
       style="display:inline;fill:none;fill-rule:evenodd;stroke:#000000;stroke-width:1px;stroke-linecap:butt;stroke-linejoin:miter;stroke-opacity:1"
       d="m 156,322.07649 0,-87.85714"
       id="path4309"
       inkscape:connector-curvature="0" />
    <rect
       style="display:inline;fill:#552200;stroke:none;stroke-width:2;stroke-miterlimit:4;stroke-dasharray:none;stroke-opacity:1"
       id="rect4243"
       width="132.14285"
       height="7.1428571"
       x="135.28571"
       y="230.64795" />
    <rect
       style="display:inline;fill:#552200;stroke:none;stroke-width:2;stroke-miterlimit:4;stroke-dasharray:none;stroke-opacity:1"
       id="rect4243-6"
       width="93.571426"
       height="7.1428571"
       x="47.785713"
       y="330.93365" />
    <circle
       style="display:inline;fill:#916f6f;stroke:#000000;stroke-width:0.82882881;stroke-miterlimit:4;stroke-dasharray:none;stroke-opacity:1"
       id="path4162-90"
       cx="125.14286"
       cy="318.50507"
       r="0" />
    <rect
       style="display:inline;fill:#c83737;stroke:none;stroke-width:2;stroke-miterlimit:4;stroke-dasharray:none;stroke-opacity:1"
       id="rect4243-6-5"
       width="82.142853"
       height="7.1428571"
       x="241.29077"
       y="-25.571426"
       transform="matrix(0,1,-1,0,0,0)" />
    <circle
       style="display:inline;fill:#000000;stroke:none;stroke-width:2;stroke-miterlimit:4;stroke-dasharray:none;stroke-opacity:1"
       id="path4356"
       cx="21.889843"
       cy="281.96637"
       r="0" />
    <rect
       style="display:inline;fill:#552200;stroke:none;stroke-width:2;stroke-miterlimit:4;stroke-dasharray:none;stroke-opacity:1"
       id="rect4243-6-8"
       width="35.255966"
       height="7.1428571"
       x="35.076244"
       y="256.90228" />
    <circle
       style="display:inline;fill:#916f6f;stroke:#000000;stroke-width:0.82882881;stroke-miterlimit:4;stroke-dasharray:none;stroke-opacity:1"
       id="path4162-90-1"
       cx="46.652363"
       cy="244.29633"
       r="0" />
    <rect
       style="display:inline;fill:#552200;stroke:none;stroke-width:2;stroke-miterlimit:4;stroke-dasharray:none;stroke-opacity:1"
       id="rect4243-6-8-5"
       width="35.255966"
       height="7.1428571"
       x="255.71045"
       y="-123.97138"
       transform="matrix(0,1,-1,0,0,0)" />
    <path
       style="display:inline;fill:#916f6f;stroke:#000000;stroke-width:0.60360485;stroke-miterlimit:4;stroke-dasharray:none;stroke-opacity:1"
       d="m 233.28572,312.52108 a 9.2696453,9.2696453 0 0 0 -9.2697,9.26969 9.2696453,9.2696453 0 0 0 9.2697,9.2697 9.2696453,9.2696453 0 0 0 9.26969,-9.2697 9.2696453,9.2696453 0 0 0 -9.26969,-9.26969 z"
       id="path4162-9-1-4"
       inkscape:connector-curvature="0" />
    <path
       style="display:inline;fill:#916f6f;stroke:#000000;stroke-width:0.60360485;stroke-miterlimit:4;stroke-dasharray:none;stroke-opacity:1"
       d="m 213.85715,312.80679 a 9.2696453,9.2696453 0 0 0 -9.2697,9.26969 9.2696453,9.2696453 0 0 0 9.2697,9.2697 9.2696453,9.2696453 0 0 0 9.26968,-9.2697 9.2696453,9.2696453 0 0 0 -9.26968,-9.26969 z"
       id="path4162-9-1-1"
       inkscape:connector-curvature="0" />
    <path
       style="display:inline;fill:#916f6f;stroke:#000000;stroke-width:0.60360485;stroke-miterlimit:4;stroke-dasharray:none;stroke-opacity:1"
       d="m 194.57143,312.80679 a 9.2696453,9.2696453 0 0 0 -9.2697,9.26969 9.2696453,9.2696453 0 0 0 9.2697,9.2697 9.2696453,9.2696453 0 0 0 9.26969,-9.2697 9.2696453,9.2696453 0 0 0 -9.26969,-9.26969 z"
       id="path4162-9-1-8"
       inkscape:connector-curvature="0" />
    <path
       style="display:inline;fill:#916f6f;stroke:#000000;stroke-width:0.60360485;stroke-miterlimit:4;stroke-dasharray:none;stroke-opacity:1"
       d="m 175.28572,313.52108 a 9.2696453,9.2696453 0 0 0 -9.2697,9.26969 9.2696453,9.2696453 0 0 0 9.2697,9.2697 9.2696453,9.2696453 0 0 0 9.26969,-9.2697 9.2696453,9.2696453 0 0 0 -9.26969,-9.26969 z"
       id="path4162-9-1-2"
       inkscape:connector-curvature="0" />
    <path
       style="display:inline;fill:#916f6f;stroke:#000000;stroke-width:0.60360485;stroke-miterlimit:4;stroke-dasharray:none;stroke-opacity:1"
       d="m 156.00001,313.52108 a 9.2696453,9.2696453 0 0 0 -9.2697,9.26969 9.2696453,9.2696453 0 0 0 9.2697,9.2697 9.2696453,9.2696453 0 0 0 9.26969,-9.2697 9.2696453,9.2696453 0 0 0 -9.26969,-9.26969 z"
       id="path4162-9-1-6"
       inkscape:connector-curvature="0" />
    <path
       style="display:inline;fill:#916f6f;stroke:#000000;stroke-width:0.60360485;stroke-miterlimit:4;stroke-dasharray:none;stroke-opacity:1"
       d="m 252.42858,312.8068 a 9.2696453,9.2696453 0 0 0 -9.2697,9.26969 9.2696453,9.2696453 0 0 0 9.2697,9.2697 9.2696453,9.2696453 0 0 0 9.26969,-9.2697 9.2696453,9.2696453 0 0 0 -9.26969,-9.26969 z"
       id="path4162-9-1"
       inkscape:connector-curvature="0" />
    <rect
       style="fill:#552200;stroke:none;stroke-width:2;stroke-miterlimit:4;stroke-dasharray:none;stroke-opacity:1"
       id="rect4717"
       width="70.639679"
       height="9.8964615"
       x="235.85306"
       y="431.39496" />
    <circle
       style="display:inline;fill:#000000;stroke:none;stroke-width:2;stroke-miterlimit:4;stroke-dasharray:none;stroke-opacity:1"
       id="path4356-2-8"
       cx="282.59814"
       cy="-21.96549"
       r="3.5714285"
       transform="matrix(0,1,-1,0,0,0)" />
  </g>
  <g
     inkscape:groupmode="layer"
     id="layer3"
     inkscape:label="pulley"
     style="display:inline">
    <path
       style="fill:none;fill-rule:evenodd;stroke:#000000;stroke-width:1px;stroke-linecap:butt;stroke-linejoin:miter;stroke-opacity:1"
       d="m 30.90585,512.54438 0,-152.84536 -131.95282,0 0,94.56619"
       id="path4427"
       inkscape:connector-curvature="0" />
    <rect
       style="fill:#803300;stroke:none;stroke-width:2;stroke-miterlimit:4;stroke-dasharray:none;stroke-opacity:1"
       id="rect4404-9-3"
       width="7.7753944"
       height="47.81868"
       x="453.04724"
       y="-124.56575"
       transform="matrix(0,1,1,0,0,0)" />
    <circle
       style="display:inline;fill:#916f6f;stroke:#000000;stroke-width:0.82882881;stroke-miterlimit:4;stroke-dasharray:none;stroke-opacity:1"
       id="path4162-90-7"
       cx="140.63283"
       cy="404.7829"
       r="12.728442"
       transform="scale(-1,1)" />
    <path
       style="fill:#803300;stroke:none;stroke-width:2;stroke-miterlimit:4;stroke-dasharray:none;stroke-opacity:1"
       d="m 14.95656,431.02148 0,77.75977 32.99219,0 0,-77.75391 7.77539,0 0,84.75196 -0.38868,0 0,0.77734 -47.81835,0 0,-0.006 -0.33594,0 0,-85.5293 7.77539,0 z"
       id="rect4404"
       inkscape:connector-curvature="0" />
    <rect
       style="display:inline;fill:#c83737;stroke:none;stroke-width:2;stroke-miterlimit:4;stroke-dasharray:none;stroke-opacity:1"
       id="rect4243-6-5-4"
       width="52.453472"
       height="7.1428571"
       x="-166.0293"
       y="-425.09485"
       transform="scale(1,-1)" />
    <circle
       style="display:inline;fill:#000000;stroke:none;stroke-width:2;stroke-miterlimit:4;stroke-dasharray:none;stroke-opacity:1"
       id="path4356-2"
       cx="421.12756"
       cy="-140.24222"
       r="3.5714285"
       transform="matrix(0,1,1,0,0,0)" />
    <path
       style="display:inline;fill:#916f6f;stroke:#000000;stroke-width:0.82882881;stroke-miterlimit:4;stroke-dasharray:none;stroke-opacity:1"
       d="m 124.25558,305.09633 a 12.728442,12.728442 0 0 0 -12.72852,12.72851 12.728442,12.728442 0 0 0 12.72852,12.72852 12.728442,12.728442 0 0 0 12.72851,-12.72852 12.728442,12.728442 0 0 0 -12.72851,-12.72851 z"
       id="path4162-9-4"
       inkscape:connector-curvature="0" />
    <path
       style="display:inline;fill:#916f6f;stroke:#000000;stroke-width:0.82882881;stroke-miterlimit:4;stroke-dasharray:none;stroke-opacity:1"
       d="m 47.283099,230.32306 a 12.728442,12.728442 0 0 0 -12.72852,12.72851 12.728442,12.728442 0 0 0 12.72852,12.72852 12.728442,12.728442 0 0 0 12.72851,-12.72852 12.728442,12.728442 0 0 0 -12.72851,-12.72851 z"
       id="path4162-9-2"
       inkscape:connector-curvature="0" />
  </g>
  <g
     inkscape:groupmode="layer"
     id="layer7"
     inkscape:label="final push button">
    <rect
       style="display:inline;fill:#803300;stroke:none;stroke-width:2;stroke-miterlimit:4;stroke-dasharray:none;stroke-opacity:1"
       id="rect4404-9-3-7"
       width="7.7753944"
       height="64.924553"
       x="644.15399"
       y="98.941887"
       transform="matrix(0,1,1,0,0,0)" />
    <a
       id="a3447"
       transform="matrix(-1,0,0,-1,525.61667,1418.9346)">
      <path
         inkscape:connector-curvature="0"
         id="path4427-2"
         d="m 395.65314,774.4769 0,-152.84536 -131.95282,0 0,94.56619"
         style="display:inline;fill:none;fill-rule:evenodd;stroke:#000000;stroke-width:1px;stroke-linecap:butt;stroke-linejoin:miter;stroke-opacity:1" />
    </a>
    <rect
       style="display:inline;fill:#803300;stroke:none;stroke-width:2;stroke-miterlimit:4;stroke-dasharray:none;stroke-opacity:1"
       id="rect4404-9-3-7-9"
       width="7.7753944"
       height="64.924553"
       x="695.24072"
       y="230.43378"
       transform="matrix(0,1,1,0,0,0)" />
    <rect
       style="display:inline;fill:#803300;stroke:none;stroke-width:2;stroke-miterlimit:4;stroke-dasharray:none;stroke-opacity:1"
       id="rect4404-9-3-7-5"
       width="7.7753944"
       height="127.60214"
       x="618.52826"
       y="197.35555"
       transform="matrix(0,1,1,0,0,0)" />
    <rect
       style="fill:#ff0000;stroke:#ff0000;stroke-width:4.88563204;stroke-miterlimit:4;stroke-dasharray:none;stroke-opacity:1"
       id="rect3473"
       width="32.301785"
       height="12.508863"
       x="247.75476"
       y="628.25714" />
  </g>
  <g
     inkscape:groupmode="layer"
     id="layer5"
     inkscape:label="Water layer">
    <rect
       style="display:inline;fill:#550000;stroke:none;stroke-width:2;stroke-miterlimit:4;stroke-dasharray:none;stroke-opacity:1"
       id="rect4243-6-4"
       width="237.66646"
       height="14.341928"
       x="-380.26865"
       y="446.00934"
       transform="matrix(-0.99694944,-0.07805006,0.0288096,0.99958492,0,0)" />
    <path
       style="fill:none;fill-rule:evenodd;stroke:#000000;stroke-width:1px;stroke-linecap:butt;stroke-linejoin:miter;stroke-opacity:1"
       d="m 236.30205,353.00258 0,78.34699 69.27523,0 0,-78.34699"
       id="path4715"
       inkscape:connector-curvature="0" />
    <rect
       style="fill:#00ffff;stroke:none;stroke-width:2;stroke-miterlimit:4;stroke-dasharray:none;stroke-opacity:1"
       id="rect3382"
       width="67.900719"
       height="77.247383"
       x="236.96527"
       y="353.56207" />
    <rect
       style="fill:#550000;stroke:#550000;stroke-width:1.04437065;stroke-miterlimit:4;stroke-dasharray:none;stroke-opacity:1"
       id="rect3412"
       width="17.44973"
       height="70.230858"
       x="155.66635"
       y="399.81754" />
    <rect
       style="display:inline;fill:#550000;stroke:none;stroke-width:2;stroke-miterlimit:4;stroke-dasharray:none;stroke-opacity:1"
       id="rect4243-6-4-2"
       width="290.22412"
       height="14.344869"
       x="152.55315"
       y="555.57617"
       transform="matrix(0.99050877,-0.13744957,0.03870099,0.99925084,0,0)" />
    <rect
       style="fill:#550000;stroke:#550000;stroke-width:1.15466619;stroke-miterlimit:4;stroke-dasharray:none;stroke-opacity:1"
       id="rect3412-3"
       width="21.330069"
       height="70.230858"
       x="-421.51639"
       y="469.79443"
       transform="matrix(-0.99726866,0.07385945,0.07385945,0.99726866,0,0)" />
  </g>
  <g
     inkscape:groupmode="layer"
     id="layer6"
     inkscape:label="comveyor belt"
     style="display:inline">
    <path
       style="fill:none;stroke:#000000;stroke-width:2;stroke-miterlimit:4;stroke-dasharray:none;stroke-opacity:1"
       id="path4737"
       sodipodi:type="arc"
       sodipodi:cx="14.05995"
       sodipodi:cy="662.51556"
       sodipodi:rx="18.272177"
       sodipodi:ry="18.272177"
       sodipodi:start="1.5498524"
       sodipodi:end="4.7141343"
       d="m 14.442613,680.78373 a 18.272177,18.272177 0 0 1 -16.0831708,-8.92116 18.272177,18.272177 0 0 1 -0.1765451,-18.39088 18.272177,18.272177 0 0 1 15.9089439,-9.22827 l -0.03189,18.27214 z"
       transform="matrix(0.99904613,0.04366737,-0.04366737,0.99904613,0,0)" />
    <circle
       style="fill:#483737;stroke:none;stroke-width:2;stroke-miterlimit:4;stroke-dasharray:none;stroke-opacity:1"
       id="path4720"
       cx="14.05995"
       cy="662.51556"
       transform="matrix(0.99904613,0.04366737,-0.04366737,0.99904613,0,0)"
       r="15.939559" />
    <path
       style="fill:none;stroke:#000000;stroke-width:2;stroke-miterlimit:4;stroke-dasharray:none;stroke-opacity:1"
       id="path4737-3"
       sodipodi:type="arc"
       sodipodi:cx="-102.19949"
       sodipodi:cy="659.56531"
       sodipodi:rx="18.272177"
       sodipodi:ry="18.272177"
       sodipodi:start="1.5498524"
       sodipodi:end="4.7141343"
       d="m -101.81683,677.83348 a 18.272177,18.272177 0 0 1 -16.08317,-8.92117 18.272177,18.272177 0 0 1 -0.17655,-18.39088 18.272177,18.272177 0 0 1 15.90895,-9.22827 l -0.0319,18.27215 z"
       transform="matrix(-0.99904613,-0.04366737,-0.04366737,0.99904613,0,0)" />
    <circle
       style="fill:#483737;stroke:none;stroke-width:2;stroke-miterlimit:4;stroke-dasharray:none;stroke-opacity:1"
       id="path4720-9"
       cx="-102.19949"
       cy="659.56531"
       transform="matrix(-0.99904613,-0.04366737,-0.04366737,0.99904613,0,0)"
       r="15.939559" />
    <path
       style="fill:none;fill-rule:evenodd;stroke:#000000;stroke-width:1.20485616px;stroke-linecap:butt;stroke-linejoin:miter;stroke-opacity:1"
       d="m -14.6751,644.04433 88.70939,0.91228"
       id="path4757"
       inkscape:connector-curvature="0" />
    <path
       style="fill:none;fill-rule:evenodd;stroke:#000000;stroke-width:1px;stroke-linecap:butt;stroke-linejoin:miter;stroke-opacity:1"
       d="m -15.29483,680.76778 87.13716,0.69556"
       id="path4759"
       inkscape:connector-curvature="0" />
  </g>
  <g
     inkscape:groupmode="layer"
     id="layer4"
     inkscape:label="Spring"
     style="display:inline">
    <path
       style="fill:#ff7f2a;stroke:none;stroke-width:2;stroke-miterlimit:4;stroke-dasharray:none;stroke-opacity:1"
       d="m -136.8418,587.41016 -19.29687,19.46289 -18.52149,-18.36328 -0.17773,0.1875 -0.49023,-0.46289 -18.56641,18.7246 -18.64844,-18.49023 -6.17969,6.55273 18.49024,18.33204 -18.54297,18.70117 6.55273,6.17969 18.38282,-18.54297 18.93945,18.77734 1.07617,-1.14063 0.0879,0.082 17.65039,-17.80274 12.73242,12.62305 -0.0996,0.0996 4.11328,3.8789 2.32031,2.30079 0.0566,-0.0586 0.0625,0.0586 19.43359,-19.60157 18.66016,18.50196 6.17773,-6.55274 -18.5,-18.3418 17.67579,-17.82812 -6.55274,-6.17773 -17.51562,17.66601 -18.92774,-18.76562 -0.18555,0.19531 -0.20703,-0.19531 z m 0.24805,12.53711 12.73242,12.62304 -13.15234,13.26563 -12.73242,-12.62305 13.15234,-13.26562 z m -38.48828,0.82421 12.60351,12.4961 -12.41992,12.52539 -12.60156,-12.49414 12.41797,-12.52735 z"
       id="rect4508"
       inkscape:connector-curvature="0" />
    <rect
       style="display:inline;fill:#552200;stroke:none;stroke-width:2;stroke-miterlimit:4;stroke-dasharray:none;stroke-opacity:1"
       id="rect4243-6-3"
       width="93.571426"
       height="7.1428571"
       x="558.0365"
       y="210.80995"
       transform="matrix(0,1,-1,0,0,0)" />
    <path
       style="fill:none;fill-rule:evenodd;stroke:#000000;stroke-width:3.286;stroke-linecap:butt;stroke-linejoin:miter;stroke-opacity:1;stroke-miterlimit:4;stroke-dasharray:none"
       d="m -58.895369,586.26663 13.86234,53.98317 19.19402,0 14.26222,-53.71658"
       id="path4666"
       inkscape:connector-curvature="0" />
    <rect
       style="display:inline;fill:#552200;stroke:none;stroke-width:2;stroke-miterlimit:4;stroke-dasharray:none;stroke-opacity:1"
       id="rect4243-6-1"
       width="199.68349"
       height="7.1428571"
       x="-217.85027"
       y="643.8327" />
  </g>
</svg>
